<svg width="24" height="24" viewBox="0 0 24 24" fill="none" xmlns="http://www.w3.org/2000/svg">
<path fill-rule="evenodd" clip-rule="evenodd" d="M5.51513 14.3404C5.3951 13.5805 5.3325 12.7984 5.3325 12C5.3325 11.1932 5.39642 10.4031 5.51892 9.63566H2.28114C2.09738 10.3937 2 11.1855 2 12C2 12.806 2.09535 13.5897 2.27538 14.3404H5.51513ZM5.9768 16.3404H2.98853C4.16033 18.7688 6.28482 20.6513 8.87694 21.5027C7.58308 20.0687 6.58045 18.3079 5.9768 16.3404ZM8.84562 16.3404H15.1527C14.4544 18.0383 13.359 19.4906 11.9992 20.5491C10.6394 19.4906 9.54397 18.0383 8.84562 16.3404ZM15.7626 14.3404L8.23571 14.3404C8.08094 13.5881 7.99917 12.8047 7.99917 12C7.99917 11.1868 8.08268 10.3953 8.24066 9.63566L15.7577 9.63566C15.9157 10.3953 15.9992 11.1868 15.9992 12C15.9992 12.8047 15.9174 13.5881 15.7626 14.3404ZM18.0215 16.3404C17.4178 18.3082 16.4149 20.0693 15.1207 21.5034C17.7139 20.6524 19.8393 18.7696 21.0115 16.3404H18.0215ZM21.7246 14.3404H18.4832C18.6032 13.5805 18.6658 12.7984 18.6658 12C18.6658 11.1932 18.6019 10.4031 18.4794 9.63566H21.7189C21.9026 10.3937 22 11.1855 22 12C22 12.806 21.9047 13.5897 21.7246 14.3404ZM11.9992 3.45094C10.6458 4.50448 9.55427 5.94805 8.85549 7.63566H15.1428C14.4441 5.94805 13.3526 4.50448 11.9992 3.45094ZM18.0142 7.63566H20.9999C19.8254 5.21807 17.7054 3.3448 15.1207 2.49656C16.4097 3.92485 17.4097 5.67751 18.0142 7.63566ZM3.0001 7.63566H5.98415C6.58857 5.67786 7.58832 3.92549 8.87694 2.49734C6.29333 3.34594 4.17429 5.21881 3.0001 7.63566ZM11.9992 0H12C18.6274 0 24 5.37258 24 12C24 18.6274 18.6274 24 12 24H11.9992C5.37213 23.9995 0 18.6271 0 12C0 5.37286 5.37213 0.00045042 11.9992 0Z" fill="white"/>
</svg>
